<svg width="20" height="18" viewBox="0 0 20 18" fill="none" xmlns="http://www.w3.org/2000/svg">
<path fill-rule="evenodd" clip-rule="evenodd" d="M9.64844 17.0484C9.42341 17.2734 9.11824 17.3998 8.80004 17.3998C8.48185 17.3998 8.17668 17.2734 7.95164 17.0484L0.751643 9.84842C0.526677 9.62338 0.400299 9.31821 0.400299 9.00002C0.400299 8.68182 0.526677 8.37665 0.751643 8.15162L7.95164 0.951615C8.17797 0.733026 8.48109 0.612073 8.79572 0.614807C9.11036 0.617541 9.41134 0.743744 9.63383 0.966233C9.85631 1.18872 9.98252 1.4897 9.98525 1.80433C9.98799 2.11897 9.86703 2.42209 9.64844 2.64842L4.49684 7.80002H18.4C18.7183 7.80002 19.0235 7.92644 19.2486 8.15149C19.4736 8.37653 19.6 8.68176 19.6 9.00002C19.6 9.31828 19.4736 9.6235 19.2486 9.84854C19.0235 10.0736 18.7183 10.2 18.4 10.2H4.49684L9.64844 15.3516C9.87341 15.5766 9.99979 15.8818 9.99979 16.2C9.99979 16.5182 9.87341 16.8234 9.64844 17.0484Z" fill="#5B5B7E"/>
</svg>
